<?xml version="1.0" standalone="no"?>
<!DOCTYPE svg PUBLIC "-//W3C//DTD SVG 20010904//EN"
 "http://www.w3.org/TR/2001/REC-SVG-20010904/DTD/svg10.dtd">
<svg version="1.0" xmlns="http://www.w3.org/2000/svg"
 width="116.000000pt" height="116.000000pt" viewBox="0 0 116.000000 116.000000"
 preserveAspectRatio="xMidYMid meet">

<g transform="translate(0.000000,116.000000) scale(0.100000,-0.100000)"
fill="#000000" stroke="none">
<path d="M410 861 l-195 -58 -9 -246 c-5 -135 -6 -252 -3 -259 3 -10 63 -21
211 -38 194 -22 214 -23 366 -10 88 7 162 15 164 19 2 3 5 87 7 186 l4 180
-160 47 c-110 33 -171 47 -195 43 -19 -2 -95 -14 -167 -26 -194 -31 -183 -18
18 21 l174 33 158 -52 c87 -29 161 -51 164 -48 2 3 7 41 10 85 l6 80 -160 51
c-87 28 -168 51 -179 50 -10 0 -107 -26 -214 -58z m-147 -188 c-7 -2 -21 -2
-30 0 -10 3 -4 5 12 5 17 0 24 -2 18 -5z"/>
</g>
</svg>
